<?xml version="1.0" encoding="UTF-8" standalone="no"?><svg xmlns="http://www.w3.org/2000/svg" xmlns:xlink="http://www.w3.org/1999/xlink" contentScriptType="application/ecmascript" contentStyleType="text/css" height="223px" preserveAspectRatio="none" style="width:1056px;height:223px;" version="1.1" viewBox="0 0 1056 223" width="1056px" zoomAndPan="magnify"><defs><filter height="300%" id="fbegfuz17j2ge" width="300%" x="-1" y="-1"><feGaussianBlur result="blurOut" stdDeviation="2.0"/><feColorMatrix in="blurOut" result="blurOut2" type="matrix" values="0 0 0 0 0 0 0 0 0 0 0 0 0 0 0 0 0 0 .4 0"/><feOffset dx="4.0" dy="4.0" in="blurOut2" result="blurOut3"/><feBlend in="SourceGraphic" in2="blurOut3" mode="normal"/></filter></defs><g><rect fill="#F8F8F8" filter="url(#fbegfuz17j2ge)" height="33.9688" rx="12.5" ry="12.5" style="stroke: #383838; stroke-width: 1.5;" width="34" x="615" y="94.8906"/><text fill="#000000" font-family="sans-serif" font-size="12" lengthAdjust="spacingAndGlyphs" textLength="14" x="625" y="116.0293">LS</text><rect fill="#F8F8F8" filter="url(#fbegfuz17j2ge)" height="33.9688" rx="12.5" ry="12.5" style="stroke: #383838; stroke-width: 1.5;" width="152" x="699" y="27.0234"/><text fill="#000000" font-family="sans-serif" font-size="12" lengthAdjust="spacingAndGlyphs" textLength="132" x="709" y="48.1621">Objetos do Javascript</text><text fill="#000000" font-family="sans-serif" font-size="12" lengthAdjust="spacingAndGlyphs" textLength="134" x="904" y="32.1934">String, Number, Array</text><path d="M851,44.0078 L861,44.0078 C876,44.0078 876,28.0391 891,28.0391 L901,28.0391 " fill="none" style="stroke: #383838; stroke-width: 1.0;"/><text fill="#000000" font-family="sans-serif" font-size="12" lengthAdjust="spacingAndGlyphs" textLength="46" x="904" y="48.1621">RegExp</text><path d="M851,44.0078 L861,44.0078 C876,44.0078 876,44.0078 891,44.0078 L901,44.0078 " fill="none" style="stroke: #383838; stroke-width: 1.0;"/><text fill="#000000" font-family="sans-serif" font-size="12" lengthAdjust="spacingAndGlyphs" textLength="30" x="904" y="64.1309">Date</text><path d="M851,44.0078 L861,44.0078 C876,44.0078 876,59.9766 891,59.9766 L901,59.9766 " fill="none" style="stroke: #383838; stroke-width: 1.0;"/><path d="M649,111.875 L659,111.875 C674,111.875 674,44.0078 689,44.0078 L699,44.0078 " fill="none" style="stroke: #383838; stroke-width: 1.0;"/><rect fill="#F8F8F8" filter="url(#fbegfuz17j2ge)" height="33.9688" rx="12.5" ry="12.5" style="stroke: #383838; stroke-width: 1.5;" width="170" x="699" y="98.8828"/><text fill="#000000" font-family="sans-serif" font-size="12" lengthAdjust="spacingAndGlyphs" textLength="150" x="709" y="120.0215">Recursos do Navegador</text><text fill="#000000" font-family="sans-serif" font-size="12" lengthAdjust="spacingAndGlyphs" textLength="86" x="922" y="80.0996">Fundamentos</text><path d="M869,115.8672 L879,115.8672 C894,115.8672 894,75.9453 909,75.9453 L919,75.9453 " fill="none" style="stroke: #383838; stroke-width: 1.0;"/><text fill="#000000" font-family="sans-serif" font-size="12" lengthAdjust="spacingAndGlyphs" textLength="50" x="922" y="96.0684">Eventos</text><path d="M869,115.8672 L879,115.8672 C894,115.8672 894,91.9141 909,91.9141 L919,91.9141 " fill="none" style="stroke: #383838; stroke-width: 1.0;"/><text fill="#000000" font-family="sans-serif" font-size="12" lengthAdjust="spacingAndGlyphs" textLength="122" x="922" y="112.0371">Objetos do Browser</text><path d="M869,115.8672 L879,115.8672 C894,115.8672 894,107.8828 909,107.8828 L919,107.8828 " fill="none" style="stroke: #383838; stroke-width: 1.0;"/><text fill="#000000" font-family="sans-serif" font-size="12" lengthAdjust="spacingAndGlyphs" textLength="51" x="922" y="128.0059">API DOM</text><path d="M869,115.8672 L879,115.8672 C894,115.8672 894,123.8516 909,123.8516 L919,123.8516 " fill="none" style="stroke: #383838; stroke-width: 1.0;"/><text fill="#000000" font-family="sans-serif" font-size="12" lengthAdjust="spacingAndGlyphs" textLength="64" x="922" y="143.9746">HTML DOM</text><path d="M869,115.8672 L879,115.8672 C894,115.8672 894,139.8203 909,139.8203 L919,139.8203 " fill="none" style="stroke: #383838; stroke-width: 1.0;"/><text fill="#000000" font-family="sans-serif" font-size="12" lengthAdjust="spacingAndGlyphs" textLength="102" x="922" y="159.9434">AJAX &amp; Fetch API</text><path d="M869,115.8672 L879,115.8672 C894,115.8672 894,155.7891 909,155.7891 L919,155.7891 " fill="none" style="stroke: #383838; stroke-width: 1.0;"/><path d="M649,111.875 L659,111.875 C674,111.875 674,115.8672 689,115.8672 L699,115.8672 " fill="none" style="stroke: #383838; stroke-width: 1.0;"/><rect fill="#F8F8F8" filter="url(#fbegfuz17j2ge)" height="33.9688" rx="12.5" ry="12.5" style="stroke: #383838; stroke-width: 1.5;" width="95" x="699" y="162.7578"/><text fill="#000000" font-family="sans-serif" font-size="12" lengthAdjust="spacingAndGlyphs" textLength="75" x="709" y="183.8965">Frameworks</text><text fill="#000000" font-family="sans-serif" font-size="12" lengthAdjust="spacingAndGlyphs" textLength="86" x="847" y="175.9121">Fundamentos</text><path d="M794,179.7422 L804,179.7422 C819,179.7422 819,171.7578 834,171.7578 L844,171.7578 " fill="none" style="stroke: #383838; stroke-width: 1.0;"/><text fill="#000000" font-family="sans-serif" font-size="12" lengthAdjust="spacingAndGlyphs" textLength="92" x="847" y="191.8809">Demonstração</text><path d="M794,179.7422 L804,179.7422 C819,179.7422 819,187.7266 834,187.7266 L844,187.7266 " fill="none" style="stroke: #383838; stroke-width: 1.0;"/><path d="M649,111.875 L659,111.875 C674,111.875 674,179.7422 689,179.7422 L699,179.7422 " fill="none" style="stroke: #383838; stroke-width: 1.0;"/><rect fill="#F8F8F8" filter="url(#fbegfuz17j2ge)" height="33.9688" rx="12.5" ry="12.5" style="stroke: #383838; stroke-width: 1.5;" width="148" x="417" y="46.9844"/><text fill="#000000" font-family="sans-serif" font-size="12" lengthAdjust="spacingAndGlyphs" textLength="128" x="427" y="68.123">Linguagem de Script</text><rect fill="#F8F8F8" filter="url(#fbegfuz17j2ge)" height="33.9688" rx="12.5" ry="12.5" style="stroke: #383838; stroke-width: 1.5;" width="106" x="261" y="20"/><text fill="#000000" font-family="sans-serif" font-size="12" lengthAdjust="spacingAndGlyphs" textLength="86" x="271" y="41.1387">Fundamentos</text><path d="M417,63.9688 L407,63.9688 C392,63.9688 392,36.9844 377,36.9844 L367,36.9844 " fill="none" style="stroke: #383838; stroke-width: 1.0;"/><rect fill="#F8F8F8" filter="url(#fbegfuz17j2ge)" height="33.9688" rx="12.5" ry="12.5" style="stroke: #383838; stroke-width: 1.5;" width="152" x="215" y="73.9688"/><text fill="#000000" font-family="sans-serif" font-size="12" lengthAdjust="spacingAndGlyphs" textLength="132" x="225" y="95.1074">Linguagem Javascript</text><text fill="#000000" font-family="sans-serif" font-size="12" lengthAdjust="spacingAndGlyphs" textLength="83" x="79" y="79.1387">Padrão ECMA</text><path d="M215,90.9531 L205,90.9531 C190,90.9531 190,74.9844 175,74.9844 L165,74.9844 " fill="none" style="stroke: #383838; stroke-width: 1.0;"/><text fill="#000000" font-family="sans-serif" font-size="12" lengthAdjust="spacingAndGlyphs" textLength="99" x="63" y="95.1074">Objetos do W3C</text><path d="M215,90.9531 L205,90.9531 C190,90.9531 190,90.9531 175,90.9531 L165,90.9531 " fill="none" style="stroke: #383838; stroke-width: 1.0;"/><text fill="#000000" font-family="sans-serif" font-size="12" lengthAdjust="spacingAndGlyphs" textLength="152" x="10" y="111.0762">Biblioteca e Frameworks</text><path d="M215,90.9531 L205,90.9531 C190,90.9531 190,106.9219 175,106.9219 L165,106.9219 " fill="none" style="stroke: #383838; stroke-width: 1.0;"/><path d="M417,63.9688 L407,63.9688 C392,63.9688 392,90.9531 377,90.9531 L367,90.9531 " fill="none" style="stroke: #383838; stroke-width: 1.0;"/><path d="M615,111.875 L605,111.875 C590,111.875 590,63.9688 575,63.9688 L565,63.9688 " fill="none" style="stroke: #383838; stroke-width: 1.0;"/><rect fill="#F8F8F8" filter="url(#fbegfuz17j2ge)" height="33.9688" rx="12.5" ry="12.5" style="stroke: #383838; stroke-width: 1.5;" width="130" x="435" y="148.8594"/><text fill="#000000" font-family="sans-serif" font-size="12" lengthAdjust="spacingAndGlyphs" textLength="110" x="445" y="169.998">Sintaxe Javascript</text><text fill="#000000" font-family="sans-serif" font-size="12" lengthAdjust="spacingAndGlyphs" textLength="68" x="314" y="130.0762">Introdução</text><path d="M435,165.8438 L425,165.8438 C410,165.8438 410,125.9219 395,125.9219 L385,125.9219 " fill="none" style="stroke: #383838; stroke-width: 1.0;"/><text fill="#000000" font-family="sans-serif" font-size="12" lengthAdjust="spacingAndGlyphs" textLength="118" x="264" y="146.0449">Elementos básicos</text><path d="M435,165.8438 L425,165.8438 C410,165.8438 410,141.8906 395,141.8906 L385,141.8906 " fill="none" style="stroke: #383838; stroke-width: 1.0;"/><text fill="#000000" font-family="sans-serif" font-size="12" lengthAdjust="spacingAndGlyphs" textLength="72" x="310" y="162.0137">Expressões</text><path d="M435,165.8438 L425,165.8438 C410,165.8438 410,157.8594 395,157.8594 L385,157.8594 " fill="none" style="stroke: #383838; stroke-width: 1.0;"/><text fill="#000000" font-family="sans-serif" font-size="12" lengthAdjust="spacingAndGlyphs" textLength="67" x="315" y="177.9824">Sentenças</text><path d="M435,165.8438 L425,165.8438 C410,165.8438 410,173.8281 395,173.8281 L385,173.8281 " fill="none" style="stroke: #383838; stroke-width: 1.0;"/><text fill="#000000" font-family="sans-serif" font-size="12" lengthAdjust="spacingAndGlyphs" textLength="53" x="329" y="193.9512">Funções</text><path d="M435,165.8438 L425,165.8438 C410,165.8438 410,189.7969 395,189.7969 L385,189.7969 " fill="none" style="stroke: #383838; stroke-width: 1.0;"/><text fill="#000000" font-family="sans-serif" font-size="12" lengthAdjust="spacingAndGlyphs" textLength="48" x="334" y="209.9199">Objetos</text><path d="M435,165.8438 L425,165.8438 C410,165.8438 410,205.7656 395,205.7656 L385,205.7656 " fill="none" style="stroke: #383838; stroke-width: 1.0;"/><path d="M615,111.875 L605,111.875 C590,111.875 590,165.8438 575,165.8438 L565,165.8438 " fill="none" style="stroke: #383838; stroke-width: 1.0;"/><!--
--></g></svg>